PathFileType	4	(X/Y/Z)	C:/Users/opensim2020/Desktop/walking_exp_matlab/subject03_walking05_straight_01.trc																																																																																																																																					
DataRate	CameraRate	NumFrames	NumMarkers	Units	OrigDataRate	OrigDataStartFrame	OrigNumFrames																																																																																																																																	
100	100	4	45	mm	100	950	298																																																																																																																																	
Frame#	Time	LFHD			RFHD			LBHD			RBHD			C7			T10			CLAV			STRN			RBAK			LSHO			LUPA			LELB			LFRM			LWRA			LWRB			LFIN			RSHO			RUPA			RELB			RFRM			RWRA			RWRB			RFIN			LASI			RASI			LPSI			RPSI			LTHI			LKNE			LTIB			LANK			LHEE			LTOE			RTHI			RKNE			RTIB			RANK			RHEE			RTOE			*39			*40			*41			*42			*43			*44		
		X1	Y1	Z1	X2	Y2	Z2	X3	Y3	Z3	X4	Y4	Z4	X5	Y5	Z5	X6	Y6	Z6	X7	Y7	Z7	X8	Y8	Z8	X9	Y9	Z9	X10	Y10	Z10	X11	Y11	Z11	X12	Y12	Z12	X13	Y13	Z13	X14	Y14	Z14	X15	Y15	Z15	X16	Y16	Z16	X17	Y17	Z17	X18	Y18	Z18	X19	Y19	Z19	X20	Y20	Z20	X21	Y21	Z21	X22	Y22	Z22	X23	Y23	Z23	X24	Y24	Z24	X25	Y25	Z25	X26	Y26	Z26	X27	Y27	Z27	X28	Y28	Z28	X29	Y29	Z29	X30	Y30	Z30	X31	Y31	Z31	X32	Y32	Z32	X33	Y33	Z33	X34	Y34	Z34	X35	Y35	Z35	X36	Y36	Z36	X37	Y37	Z37	X38	Y38	Z38	X39	Y39	Z39	X40	Y40	Z40	X41	Y41	Z41	X42	Y42	Z42	X43	Y43	Z43	X44	Y44	Z44	X45	Y45	Z45
																																																																																																																																								
224	2.23	850.05713	1599.79504	-1064.46289	822.60449	1602.9176	-934.20892	718.56305	1576.55774	-1087.64697	696.97308	1578.79749	-958.54517	660.2962	1410.41089	-1029.45398	622.43219	1093.92627	-1027.56042	778.69519	1329.99548	-1022.59015	820.75018	1165.56494	-1022.73199	598.52411	1235.06128	-931.59863	738.87946	1365.62793	-1181.48022	707.10907	1165.95313	-1246.91223	697.03625	1042.67444	-1254.42908	705.18054	912.14581	-1251.01794	707.0282	793.82172	-1217.84924	683.95441	800.55334	-1268.67249	685.24628	715.93652	-1255.97009	726.21027	1357.87244	-865.87622	758.8327	1144.3689	-782.35956	801.51807	1041.38708	-765.01367	864.26117	920.18414	-764.83246	925.86938	843.59753	-803.13696	900.0484	826.48273	-759.12952	948.84045	771.4809	-769.87128	802.6897	931.33722	-1131.04749	783.47614	932.64984	-893.29309	635.82074	945.51202	-1096.6012	625.30975	960.47577	-947.1156	820.70874	633.29694	-1183.75037	888.08197	470.18637	-1141.50952	887.58893	277.72131	-1145.69604	931.1687	70.28997	-1112.18872	898.74408	30.81239	-1072.35571	1082.62903	55.3535	-1088.75806	696.68317	640.22571	-867.56708	682.0058	461.65039	-907.30957	600.77002	285.80399	-912.85126	532.08948	81.55578	-969.36542	484.6012	57.01664	-1021.08447	669.05566	31.30228	-982.78564	769.4165	1672.39844	-1028.26074	NaN	NaN	NaN	NaN	NaN	NaN	NaN	NaN	NaN	NaN	NaN	NaN	NaN	NaN	NaN
225	2.24	860.29846	1598.80249	-1064.39905	832.53973	1601.96631	-934.2041	728.84662	1575.59937	-1087.93066	706.86835	1577.7948	-958.92944	670.31641	1409.42651	-1029.93677	632.61743	1092.92102	-1028.6427	788.79022	1329.04419	-1022.78943	830.8316	1164.59094	-1022.70947	608.31287	1234.14673	-932.27893	749.28589	1364.6272	-1181.75024	716.12091	1165.12122	-1247.00989	705.1969	1041.85364	-1254.49023	712.1106	911.27148	-1250.97021	712.86725	793.04358	-1217.78369	689.74426	799.86871	-1268.60535	689.96942	715.27411	-1255.85986	735.95105	1356.92639	-866.27289	768.78271	1143.60168	-782.56091	811.67657	1040.83032	-765.20386	875.44183	920.25513	-765.34076	937.65802	844.34894	-803.99579	912.17181	826.89502	-759.96478	961.67896	772.67401	-770.78296	813.50745	930.03955	-1131.08997	793.11444	931.88824	-893.43152	646.53699	944.39886	-1097.71362	634.91339	959.61462	-948.32587	828.72577	631.17999	-1184.40637	895.09332	467.57941	-1140.25903	901.25452	276.65057	-1144.68018	953.04309	70.73278	-1112.45886	922.08624	30.31767	-1072.91406	1105.43872	60.70402	-1088.41101	704.18127	639.84198	-867.41901	688.27631	461.28171	-906.98645	604.61481	286.42059	-912.64221	533.12885	83.15121	-969.30151	485.26517	59.1804	-1021.02594	669.30048	31.3097	-982.49799	779.56305	1671.46106	-1028.34766	NaN	NaN	NaN	NaN	NaN	NaN	NaN	NaN	NaN	NaN	NaN	NaN	NaN	NaN	NaN
226	2.25	870.52313	1597.87585	-1064.29065	842.32672	1600.99915	-934.17792	739.15228	1574.7522	-1088.23096	716.76654	1576.94788	-959.29694	680.34955	1408.4248	-1030.4635	643.00397	1091.91919	-1029.69849	798.88348	1328.12646	-1022.9743	841.09534	1163.70752	-1022.66937	618.17493	1233.11194	-933.12006	759.72137	1363.75159	-1182.18469	725.47485	1164.24353	-1247.24951	713.81335	1041.04956	-1254.48694	719.31409	910.42615	-1250.91394	718.86322	792.117	-1217.54578	695.91351	799.22345	-1268.6488	694.79083	714.11328	-1255.61011	745.52954	1355.96948	-866.68958	778.66431	1142.85559	-782.8205	821.63477	1040.19226	-765.43207	886.30341	920.11902	-765.87689	949.17651	845.01642	-804.78314	923.87103	827.13666	-760.86957	973.99115	773.57422	-771.73676	824.48932	928.89801	-1131.1084	802.7821	931.07068	-893.63086	657.28259	943.44434	-1098.88684	644.77393	958.64319	-949.61194	837.05798	629.12518	-1184.71594	902.58826	465.58344	-1138.72351	914.30939	275.94586	-1143.87866	972.86768	71.60175	-1112.79346	943.5769	29.55541	-1073.89124	1125.81653	66.31141	-1088.13013	711.89709	639.50012	-867.37366	694.86853	460.92102	-906.64832	608.66266	287.08508	-912.4361	533.89429	84.93526	-968.97888	485.85583	61.63202	-1020.79419	669.48029	31.27127	-982.39709	789.74438	1670.5719	-1028.50879	NaN	NaN	NaN	NaN	NaN	NaN	NaN	NaN	NaN	NaN	NaN	NaN	NaN	NaN	NaN
227	2.26	880.7663	1597.05322	-1064.2478	852.17792	1600.12341	-934.21606	749.44073	1573.92627	-1088.59277	726.71222	1576.11169	-959.69043	690.48584	1407.52405	-1031.04089	653.51697	1090.9353	-1030.78357	809.07819	1327.32605	-1023.22363	851.46014	1162.95154	-1022.6731	628.09198	1232.02881	-934.06177	770.23047	1362.83191	-1182.55981	735.17841	1163.48157	-1247.48462	722.64203	1040.29688	-1254.69971	727.18311	909.67078	-1251.01904	725.33197	791.32617	-1217.69617	702.63025	798.53973	-1268.59802	700.84729	713.86517	-1255.80725	755.09357	1355.0658	-867.11853	788.46216	1142.0968	-783.19226	831.4574	1039.50598	-765.77771	896.92041	919.94824	-766.34564	960.30701	845.38837	-805.68884	935.22803	827.26642	-761.80066	985.85077	774.27277	-772.63837	835.534	927.82782	-1131.11987	812.62158	930.27795	-893.71332	668.17267	942.60089	-1100.12415	654.61768	957.75708	-950.88159	845.7002	627.23914	-1184.61755	910.3902	463.65131	-1137.2771	926.96454	275.61887	-1143.47241	990.19916	72.32967	-1113.05872	962.15503	29.03675	-1074.75134	1143.59009	70.97559	-1087.81458	719.8916	639.23639	-867.48212	701.71014	460.6474	-906.28754	612.91467	287.87778	-912.23566	534.92938	86.87354	-968.72125	486.51355	64.48985	-1020.50507	669.70502	31.21494	-982.26642	799.90747	1669.7467	-1028.71448	NaN	NaN	NaN	NaN	NaN	NaN	NaN	NaN	NaN	NaN	NaN	NaN	NaN	NaN	NaN
